<?xml version="1.0" standalone="no"?>
<!DOCTYPE svg PUBLIC "-//W3C//DTD SVG 20010904//EN"
 "http://www.w3.org/TR/2001/REC-SVG-20010904/DTD/svg10.dtd">
<svg version="1.0" xmlns="http://www.w3.org/2000/svg"
 width="360.000000pt" height="240.000000pt" viewBox="0 0 360.000000 240.000000"
 preserveAspectRatio="xMidYMid meet">

<g transform="translate(0.000000,240.000000) scale(0.100000,-0.100000)"
fill="#000000" stroke="none">
<path d="M1620 2306 c-25 -8 -56 -18 -70 -22 -48 -15 -137 -73 -174 -114 -41
-46 -67 -98 -85 -177 -7 -29 -25 -72 -41 -95 -28 -43 -28 -44 -24 -173 3 -71
4 -154 4 -183 l0 -54 98 -96 c91 -89 101 -103 121 -165 14 -40 31 -71 42 -78
26 -14 171 -14 197 0 32 17 33 14 14 -37 -18 -45 -118 -192 -131 -192 -4 0
-11 4 -17 9 -5 5 -34 16 -64 26 -66 21 -133 62 -179 109 -28 29 -33 40 -28 68
2 18 -2 48 -9 67 -8 18 -14 53 -14 77 0 35 -4 44 -21 49 -12 4 -42 23 -67 41
-25 20 -51 32 -61 29 -9 -2 -28 2 -43 9 -26 14 -29 13 -64 -26 -37 -41 -37
-41 -31 -111 5 -57 11 -75 32 -97 14 -14 25 -34 25 -43 0 -10 8 -20 18 -24 79
-28 175 -83 254 -145 142 -114 233 -168 282 -168 10 0 100 104 213 247 10 13
25 1 97 -73 83 -84 103 -122 76 -139 -5 -3 -10 -15 -10 -25 0 -10 -15 -29 -32
-41 -18 -13 -44 -35 -58 -49 -46 -46 -143 -130 -152 -130 -16 0 -8 -50 11 -69
29 -29 97 -123 115 -159 16 -32 16 -32 -9 -42 -83 -32 -154 -50 -192 -50 -46
0 -93 -23 -93 -45 0 -8 14 -21 31 -29 38 -19 155 -13 208 11 26 12 52 14 106
9 78 -7 125 5 125 32 0 8 -18 35 -41 59 -49 53 -69 98 -69 155 0 32 -6 49 -26
69 l-26 27 51 26 c62 32 69 32 73 4 2 -13 9 -22 15 -21 8 2 15 -17 19 -47 8
-60 16 -68 34 -35 17 32 20 31 58 -6 l31 -30 16 30 c21 43 33 39 37 -11 2 -34
6 -23 16 52 14 103 39 183 54 174 5 -4 23 6 39 22 16 15 29 22 29 15 0 -7 10
-21 22 -31 20 -16 21 -21 10 -57 -16 -55 -15 -60 11 -58 21 2 22 6 25 103 2
73 -1 111 -13 138 -8 20 -15 47 -15 59 0 12 -7 29 -17 36 -16 14 -47 78 -40
85 2 2 18 -11 36 -30 24 -24 36 -50 46 -97 8 -35 24 -97 35 -138 28 -105 26
-149 -9 -201 -21 -32 -28 -52 -25 -74 3 -17 0 -37 -5 -45 -7 -12 -17 -6 -49
27 -31 33 -41 38 -46 26 -9 -23 -7 -36 3 -29 19 11 60 -41 75 -95 8 -31 26
-66 38 -80 13 -13 23 -28 23 -33 0 -4 6 -12 14 -16 8 -5 10 -14 6 -21 -5 -9
-4 -11 3 -6 7 4 20 -10 33 -38 26 -56 16 -80 -17 -40 l-24 29 3 -25 c1 -19 -3
-25 -18 -25 -14 0 -21 8 -23 28 -3 23 -6 26 -18 16 -8 -6 -14 -20 -14 -30 0
-14 -7 -19 -30 -19 -21 0 -30 5 -30 16 0 8 4 12 10 9 6 -3 7 1 4 9 -4 11 2 19
17 25 14 6 17 10 9 10 -9 1 -30 -13 -48 -29 -35 -31 -94 -42 -108 -18 -9 15
26 40 48 34 19 -4 66 38 88 79 12 22 10 28 -21 69 -19 25 -40 47 -46 50 -7 3
5 -17 27 -45 30 -38 38 -55 31 -67 -17 -31 -56 -61 -96 -74 -45 -15 -60 -50
-28 -66 28 -15 300 -12 313 3 14 17 -12 76 -65 146 -24 31 -48 66 -54 77 -14
27 -14 65 0 57 19 -12 50 27 47 60 -2 21 1 30 12 30 22 0 50 -64 50 -116 0
-88 51 -108 77 -29 8 25 19 50 24 56 5 6 12 32 15 57 6 45 5 47 -49 107 -62
69 -59 56 -76 301 l-9 117 -41 41 c-38 38 -131 172 -173 249 -10 19 -37 41
-67 56 -41 21 -64 26 -130 26 -44 0 -92 5 -107 10 l-27 11 24 25 c13 13 35 48
49 77 20 42 30 53 54 55 16 2 33 -1 39 -7 15 -15 82 -14 95 2 6 7 16 33 22 58
7 27 29 67 51 94 29 35 39 56 39 82 0 63 -39 113 -90 113 -19 0 -21 4 -15 44
8 50 -13 142 -46 208 -32 64 -111 133 -206 180 -80 40 -88 42 -191 45 -72 2
-122 -2 -152 -11z m293 -27 c66 -24 180 -103 213 -146 41 -54 66 -129 71 -219
l6 -80 -31 -13 c-17 -7 -37 -20 -43 -28 -10 -12 -14 -9 -26 17 -7 18 -10 36
-7 41 3 5 2 8 -3 7 -12 -4 -94 88 -85 96 4 4 1 6 -7 4 -7 -1 -16 3 -19 11 -3
9 0 11 8 6 9 -5 11 -4 6 4 -4 6 -11 9 -16 6 -5 -3 -11 -1 -15 5 -4 6 -11 7
-17 4 -7 -4 -8 -2 -4 5 4 6 0 24 -10 39 -10 15 -28 47 -40 72 -12 25 -41 63
-65 85 l-43 40 47 -54 c26 -29 47 -58 47 -65 0 -17 59 -168 72 -183 6 -8 13
-11 16 -8 3 2 -1 11 -8 20 -7 9 -10 18 -8 21 14 13 46 -59 65 -146 43 -189 52
-280 29 -280 -7 0 -20 -15 -28 -32 -8 -18 -13 -26 -11 -18 2 10 -2 9 -12 -4
-8 -11 -15 -15 -15 -9 0 7 7 19 16 27 8 9 12 16 9 16 -4 0 0 11 9 25 17 26 14
32 -7 15 -7 -6 -40 -32 -75 -57 -52 -40 -60 -49 -45 -55 12 -6 10 -7 -8 -3
-19 3 -29 0 -33 -12 -7 -18 2 -32 12 -18 4 6 12 11 17 12 6 1 18 5 29 9 17 6
18 3 11 -34 -5 -29 -3 -42 5 -42 6 0 8 5 4 12 -4 6 -3 8 4 4 6 -3 13 -2 17 4
3 5 3 10 -2 10 -4 0 -8 20 -8 45 -1 51 10 39 17 -20 5 -40 5 -40 -68 -93 -40
-29 -102 -77 -137 -107 -58 -50 -70 -56 -123 -61 -33 -3 -76 -2 -98 3 -36 8
-40 12 -60 69 -33 90 -59 126 -136 188 -84 68 -94 85 -81 130 5 19 6 38 3 42
-4 4 6 -1 21 -11 33 -21 117 -15 151 11 11 9 -1 -5 -29 -31 -40 -39 -44 -45
-20 -32 38 19 79 63 71 75 -3 5 2 16 11 23 15 13 16 11 9 -16 -4 -16 -16 -39
-27 -51 -10 -11 -19 -25 -19 -31 0 -16 54 -53 78 -53 31 0 53 11 45 23 -3 6
-1 7 5 3 6 -4 21 -2 33 4 17 9 25 8 42 -7 11 -10 4 3 -17 30 -41 50 -68 65
-39 20 11 -17 13 -24 5 -19 -9 5 -24 1 -43 -13 -34 -26 -47 -26 -78 -2 l-23
18 22 21 c16 15 24 36 28 71 4 45 1 54 -29 93 -19 24 -41 48 -49 55 -25 20
-98 16 -133 -9 l-32 -22 25 29 c14 16 17 23 7 15 -16 -12 -20 -12 -28 1 -12
19 -11 56 1 80 14 25 64 25 115 -1 50 -26 53 -25 25 5 -14 15 -39 27 -64 30
l-42 7 27 82 c34 105 53 143 97 189 36 37 66 52 41 20 -13 -16 -12 -17 3 -4
10 7 15 17 12 22 -9 15 140 79 204 88 76 12 196 3 255 -20z m132 -399 c10 -11
16 -20 13 -20 -3 0 -13 9 -23 20 -10 11 -16 20 -13 20 3 0 13 -9 23 -20z m-10
-20 c3 -5 1 -10 -4 -10 -6 0 -11 5 -11 10 0 6 2 10 4 10 3 0 8 -4 11 -10z m65
-86 c0 -6 -6 -17 -14 -23 -11 -9 -16 -3 -25 33 -6 25 -11 48 -11 53 0 12 49
-50 50 -63z m188 9 c24 -60 19 -83 -27 -136 -22 -26 -43 -64 -50 -90 -13 -55
-20 -60 -54 -42 -23 12 -25 11 -21 -3 5 -15 4 -16 -8 -1 -7 9 -19 14 -25 12
-19 -7 -16 24 2 31 9 3 24 0 35 -6 21 -13 43 0 62 36 8 16 4 14 -16 -6 -15
-16 -29 -28 -31 -28 -6 0 6 32 22 55 16 24 17 77 2 92 -8 8 -5 14 11 23 27 15
30 11 32 -34 1 -35 2 -36 21 -19 27 25 39 62 32 100 -4 23 -12 33 -24 33 -26
0 -108 -57 -138 -96 -25 -34 -25 -35 -7 -55 17 -19 17 -21 -1 -56 l-20 -37 -7
75 c-4 41 -5 82 -2 91 7 22 86 77 133 94 43 14 64 6 79 -33z m-881 -48 c30
-30 34 -40 31 -76 -4 -50 -34 -78 -94 -86 -45 -6 -88 21 -105 65 -14 37 7 90
45 113 47 29 82 25 123 -16z m566 -325 c3 -11 1 -18 -4 -14 -5 3 -9 12 -9 20
0 20 7 17 13 -6z m-913 -25 c0 -14 -61 -94 -72 -94 -19 -2 -5 44 23 79 31 38
49 44 49 15z m24 -7 c-5 -7 -3 -8 5 -4 7 5 21 0 33 -11 21 -18 21 -18 8 7 -12
23 -12 24 4 11 12 -10 15 -22 11 -43 -4 -17 -2 -28 4 -28 6 0 11 -3 11 -7 -1
-40 -60 -36 -60 3 0 13 -4 24 -10 24 -5 0 -11 8 -11 18 -1 16 -2 16 -6 0 -2
-10 -8 -18 -13 -18 -4 0 -3 14 3 30 6 17 15 30 20 30 4 0 5 -5 1 -12z m146
-68 c5 0 10 -16 10 -35 0 -19 7 -53 16 -75 9 -23 13 -51 10 -65 -6 -25 -7 -25
-33 -8 -14 9 -32 31 -39 48 -7 16 -13 23 -13 15 -1 -29 11 -60 24 -60 21 0 48
-38 42 -60 -3 -11 -1 -20 4 -20 5 0 9 5 9 10 0 17 26 11 46 -11 35 -39 106
-82 183 -111 42 -15 82 -36 90 -45 13 -17 13 -17 8 0 -5 12 10 38 48 85 33 40
65 95 81 135 19 49 35 74 55 86 16 10 26 20 23 23 -3 3 0 9 7 14 8 4 10 3 5
-4 -5 -8 0 -12 13 -12 11 0 26 -7 35 -15 24 -25 42 -17 18 8 -21 22 -21 24 -4
42 12 14 13 16 1 7 -9 -6 -20 -8 -24 -4 -5 4 -5 1 -1 -5 8 -14 -9 -18 -18 -5
-2 4 21 24 51 44 l55 37 36 -29 c36 -30 55 -33 32 -5 -11 13 -8 15 22 15 19 0
40 -6 47 -12 11 -10 13 -10 7 0 -14 23 68 13 124 -15 44 -23 59 -38 83 -83 39
-73 98 -155 152 -211 l44 -45 11 -169 c11 -181 12 -185 76 -251 31 -32 39 -47
40 -84 l3 -45 -14 30 c-16 35 -20 19 -5 -20 7 -17 7 -32 0 -43 -5 -9 -10 -12
-10 -6 0 17 -41 106 -46 101 -2 -2 3 -20 11 -40 20 -49 20 -147 0 -147 -16 0
-17 2 -19 70 -3 76 -63 167 -86 130 -5 -8 -9 -26 -8 -40 2 -27 -8 -50 -21 -50
-14 0 -5 109 11 127 56 64 57 104 6 286 -16 59 -28 115 -26 125 5 22 -178 212
-205 212 -14 0 -5 -12 32 -47 39 -37 56 -64 75 -115 l25 -67 -41 -37 c-31 -27
-42 -33 -49 -23 -6 10 -10 6 -18 -13 -7 -20 -20 -28 -53 -35 -92 -19 -168 1
-168 44 0 14 -5 34 -11 45 -8 16 -8 23 2 30 10 7 9 8 -5 4 -11 -4 -26 0 -37
10 -25 22 -24 32 4 37 16 3 14 5 -10 6 -37 1 -65 25 -112 94 -31 45 -52 65
-33 30 7 -12 -5 -34 -57 -97 -36 -45 -79 -99 -96 -120 -67 -87 -54 -80 -109
-56 -56 23 -188 113 -256 173 -42 37 -170 107 -219 120 -17 4 -21 13 -21 44 0
56 9 65 48 51 36 -14 40 -44 5 -41 -22 2 -28 -25 -8 -39 17 -13 27 -9 21 8 -6
15 -4 15 11 3 15 -12 16 -12 10 3 -3 10 -2 20 3 23 13 8 13 45 0 46 -5 1 -14
3 -20 4 -5 1 -13 3 -17 4 -5 1 -1 5 6 10 9 6 22 6 32 0 37 -19 66 -11 78 22
14 40 14 39 -2 39 -21 0 -50 37 -44 55 5 12 11 10 31 -10 14 -14 30 -25 36
-25z m-147 -5 c1 -5 -8 -11 -20 -13 -12 -2 -33 -16 -47 -32 -21 -26 -36 -30
-36 -9 0 4 12 22 26 39 19 22 34 30 51 28 13 -2 25 -7 26 -13z m21 -40 c-1 -5
-16 -17 -33 -25 -22 -9 -34 -23 -38 -42 -5 -23 -8 -26 -24 -17 -25 13 -24 24
9 65 22 28 33 34 57 32 17 -2 30 -7 29 -13z m93 0 c6 -22 -15 -38 -42 -31 -27
7 -27 7 -9 26 20 20 45 22 51 5z m728 -565 c3 -5 12 -7 19 -4 8 3 15 -4 18
-18 3 -13 8 -30 12 -39 5 -12 -3 -20 -36 -32 -24 -10 -56 -28 -73 -41 l-30
-24 26 -21 c21 -16 28 -32 33 -83 4 -34 12 -71 19 -83 6 -11 12 -33 14 -49 2
-23 0 -27 -13 -22 -14 5 -15 4 -5 -8 14 -17 41 -10 41 10 0 9 10 5 30 -13 43
-38 26 -48 -88 -49 -71 0 -105 -5 -127 -17 -19 -11 -41 -15 -61 -11 -18 3 -40
1 -50 -4 -23 -12 -67 3 -61 20 2 7 15 14 28 15 13 0 30 1 37 2 7 1 10 6 7 11
-3 6 4 10 17 10 31 0 191 55 195 67 2 5 -23 49 -56 99 -33 49 -56 91 -51 92 6
2 10 13 9 25 0 22 0 22 -9 0 -5 -13 -14 -23 -19 -23 -12 0 -34 37 -29 49 6 16
170 151 183 151 8 0 16 -4 20 -10z"/>
<path d="M1894 2231 c20 -22 26 -25 26 -13 0 4 -10 13 -22 21 -23 14 -23 14
-4 -8z"/>
<path d="M1685 2223 c3 -7 8 -22 10 -33 3 -17 20 -60 71 -177 20 -45 18 -53
-16 -53 -22 0 -42 -11 -73 -41 l-42 -40 43 27 c55 35 140 44 177 20 14 -9 36
-38 49 -64 17 -32 25 -40 26 -27 0 12 -12 39 -26 61 -23 36 -43 50 -94 67 -14
4 -30 40 -80 178 -11 30 -27 64 -36 75 -8 10 -13 13 -9 7z"/>
<path d="M1916 2188 c4 -5 8 -7 11 -4 7 7 53 -61 53 -78 0 -8 7 -19 15 -26 8
-7 12 -17 8 -23 -4 -6 -1 -7 7 -2 10 6 12 4 7 -8 -3 -9 -1 -19 5 -23 7 -5 8
-2 3 7 -4 8 4 1 19 -16 14 -16 23 -36 21 -43 -3 -7 -1 -10 5 -7 9 5 33 -29 35
-50 1 -5 7 -9 14 -7 9 2 11 -3 7 -13 -3 -10 -2 -14 5 -10 5 4 15 -7 22 -24 17
-46 28 -38 26 19 -1 28 -6 50 -11 50 -4 0 -8 10 -7 23 0 21 1 21 9 2 8 -20 9
-20 9 1 1 11 -6 29 -14 40 -8 10 -15 29 -15 42 0 12 -4 22 -10 22 -5 0 -9 4
-7 9 2 9 -61 101 -69 101 -3 0 -2 -5 1 -11 4 -5 8 -20 10 -32 2 -12 15 -51 30
-85 15 -35 24 -70 21 -78 -3 -8 -2 -14 3 -14 5 0 11 -10 14 -22 l6 -23 -19 23
c-10 13 -16 30 -13 37 3 8 0 15 -7 15 -7 0 -10 7 -6 16 3 8 2 13 -3 10 -12 -7
-53 39 -44 49 5 4 3 5 -4 1 -12 -6 -26 8 -29 31 -3 21 -83 110 -99 110 -8 0
-12 -4 -9 -9z m189 -88 c22 -42 18 -51 -5 -12 -20 33 -24 42 -15 42 2 0 11
-13 20 -30z"/>
<path d="M1396 2120 c-9 -22 -16 -46 -16 -53 1 -6 10 10 20 37 11 28 18 51 16
53 -2 2 -11 -14 -20 -37z"/>
<path d="M1960 2076 c0 -2 8 -10 18 -17 15 -13 16 -12 3 4 -13 16 -21 21 -21
13z"/>
<path d="M1365 2010 c-4 -23 -5 -43 -2 -46 2 -3 7 14 11 37 4 23 5 44 2 46 -2
2 -7 -14 -11 -37z"/>
<path d="M2030 2006 c0 -2 8 -10 18 -17 15 -13 16 -12 3 4 -13 16 -21 21 -21
13z"/>
<path d="M2010 1996 c0 -2 8 -10 18 -17 15 -13 16 -12 3 4 -13 16 -21 21 -21
13z"/>
<path d="M2060 1906 c0 -2 7 -7 16 -10 8 -3 12 -2 9 4 -6 10 -25 14 -25 6z"/>
<path d="M1452 1850 c0 -14 2 -19 5 -12 2 6 2 18 0 25 -3 6 -5 1 -5 -13z"/>
<path d="M1531 1825 c-1 -34 14 -55 39 -54 10 0 9 3 -5 8 -12 5 -22 21 -26 42
l-6 34 -2 -30z"/>
<path d="M1717 1820 c-21 -4 -51 -19 -67 -35 -32 -31 -41 -24 -12 9 16 20 16
20 -1 7 -24 -19 -46 -63 -45 -87 1 -10 -1 -31 -5 -46 -6 -23 -3 -30 22 -44 17
-10 27 -22 24 -26 -2 -5 -11 -1 -19 9 -7 10 -14 13 -14 8 0 -6 19 -29 42 -50
24 -22 33 -28 20 -14 -12 14 -19 28 -16 32 3 3 28 3 56 0 64 -8 151 13 179 44
13 12 19 23 15 23 -5 0 -3 7 4 15 10 12 15 13 20 4 8 -13 50 -3 50 12 0 7 -27
13 -51 11 -3 -1 -5 9 -5 21 1 12 -4 21 -11 20 -8 -2 -10 4 -6 14 5 12 3 14 -7
8 -9 -5 -11 -4 -6 4 4 6 0 18 -8 27 -9 8 -16 13 -16 9 0 -3 -10 0 -22 6 -35
19 -80 26 -121 19z m112 -37 c14 -11 33 -38 40 -61 13 -35 13 -45 1 -66 -18
-34 -86 -66 -141 -66 -45 0 -109 30 -109 50 0 6 -4 8 -10 5 -13 -8 -1 52 18
90 14 29 39 52 72 67 26 13 101 1 129 -19z m-218 -50 c-12 -20 -14 -14 -5 12
4 9 9 14 11 11 3 -2 0 -13 -6 -23z"/>
<path d="M1689 1761 c-60 -60 -24 -151 60 -151 32 0 44 6 65 31 14 17 26 39
26 49 0 51 -49 100 -100 100 -12 0 -35 -13 -51 -29z m41 -20 c0 -11 -9 -26
-20 -34 -11 -8 -18 -17 -15 -20 3 -4 2 -5 -2 -2 -13 11 -14 58 -1 66 22 14 38
10 38 -10z m82 -55 c8 -39 -21 -66 -69 -66 -26 0 -34 3 -24 9 11 7 9 10 -8 16
-12 3 -18 11 -15 17 4 6 10 6 17 -1 16 -16 57 -14 57 3 0 8 7 17 16 20 9 4 14
12 10 21 -18 44 -19 50 -4 30 8 -11 17 -33 20 -49z"/>
<path d="M2115 1820 c-3 -5 -1 -10 4 -10 6 0 11 5 11 10 0 6 -2 10 -4 10 -3 0
-8 -4 -11 -10z"/>
<path d="M1461 1793 c-1 -12 4 -25 9 -28 12 -7 12 2 0 30 -8 19 -9 19 -9 -2z"/>
<path d="M1882 1582 c-11 -25 -11 -25 4 -10 9 9 15 21 13 27 -2 6 -10 -2 -17
-17z"/>
<path d="M2039 1590 c-3 -20 -4 -25 -12 -37 -6 -9 -3 -11 7 -7 9 3 16 17 16
30 0 23 -9 34 -11 14z"/>
<path d="M1690 1436 c0 -2 8 -10 18 -17 15 -13 16 -12 3 4 -13 16 -21 21 -21
13z"/>
<path d="M1570 1400 c-19 -4 -27 -8 -17 -9 24 -2 22 -31 -3 -31 -11 0 -20 7
-20 15 0 11 -12 15 -50 15 -54 0 -61 -7 -30 -35 11 -10 20 -26 20 -36 0 -27
13 -30 97 -23 46 4 70 10 58 14 -12 4 -15 9 -7 14 6 3 20 1 32 -6 14 -9 25
-10 37 -2 27 17 26 29 -6 63 -30 32 -45 35 -111 21z m57 -6 c-3 -3 -12 -4 -19
-1 -8 3 -5 6 6 6 11 1 17 -2 13 -5z m-127 -24 c0 -5 -7 -10 -15 -10 -8 0 -15
5 -15 10 0 6 7 10 15 10 8 0 15 -4 15 -10z m5 -60 c3 -5 -1 -10 -10 -10 -9 0
-13 5 -10 10 3 6 8 10 10 10 2 0 7 -4 10 -10z"/>
<path d="M1545 1260 l-60 -7 68 -1 c39 -1 67 2 67 8 0 6 -3 9 -7 8 -5 -1 -35
-4 -68 -8z"/>
<path d="M1290 1732 c-35 -35 -38 -69 -10 -105 26 -33 63 -41 99 -23 33 17 41
34 41 80 0 39 -23 63 -68 72 -26 5 -36 1 -62 -24z m91 -17 c44 -56 25 -101
-43 -103 -44 -2 -52 9 -54 66 -1 36 2 45 20 52 31 13 59 8 77 -15z"/>
<path d="M1335 1722 c-27 -19 -46 -82 -24 -82 5 0 8 -4 5 -9 -10 -16 36 1 56
21 11 11 18 26 16 35 -4 20 -40 44 -53 35z"/>
<path d="M1914 1296 c-3 -8 -1 -22 4 -32 8 -14 10 -13 14 10 6 29 -9 47 -18
22z"/>
<path d="M2076 1232 c-2 -4 -1 -14 4 -22 7 -11 9 -9 7 8 -1 24 -3 26 -11 14z"/>
<path d="M2022 1196 c-46 -33 -52 -41 -16 -23 17 9 36 23 43 31 18 21 12 20
-27 -8z"/>
<path d="M1850 1155 c14 -8 30 -14 35 -14 6 0 -1 6 -15 14 -14 8 -29 14 -35
14 -5 0 1 -6 15 -14z"/>
<path d="M1930 1130 c-9 -6 -10 -10 -3 -10 6 0 15 5 18 10 8 12 4 12 -15 0z"/>
<path d="M1955 1051 c8 -17 19 -33 25 -36 5 -3 1 10 -11 29 -25 43 -36 48 -14
7z"/>
<path d="M2191 1042 c-15 -22 -37 -34 -78 -46 l-58 -16 49 5 c55 6 89 24 106
56 18 33 4 33 -19 1z"/>
<path d="M2007 942 c-9 -4 12 -7 47 -7 35 0 59 3 53 7 -15 9 -76 9 -100 0z"/>
<path d="M2057 868 c-7 -4 9 -8 36 -8 26 0 47 2 47 4 0 8 -71 12 -83 4z"/>
<path d="M1371 1310 c0 -33 1 -34 11 -12 8 17 8 26 0 34 -9 9 -12 4 -11 -22z"/>
<path d="M1378 1230 c2 -16 6 -30 8 -30 2 0 4 14 4 30 0 17 -4 30 -8 30 -5 0
-7 -13 -4 -30z"/>
<path d="M2271 415 c-1 -12 -6 -26 -13 -33 -9 -9 -8 -12 4 -12 23 0 30 14 19
42 -9 21 -10 21 -10 3z"/>
<path d="M2378 213 c6 -2 18 -2 25 0 6 3 1 5 -13 5 -14 0 -19 -2 -12 -5z"/>
</g>
</svg>
