<svg viewBox="0 0 14 14" xmlns="http://www.w3.org/2000/svg"><path d="m6.34624 12.978733c-1.56519-.1103-3.170194-.6101-4.281399-1.3334-.626437-.4078-1.055651-.8792-1.055651-1.1594 0-.057.291206-.8400001.849538-2.2848001l.849537-2.1983.01486-1.046c.01341-.9436.01966-1.0658.06383-1.2481.164504-.6789.466028-1.2214.944684-1.6996.58811-.5875 1.31252-.9177 2.17038-.9891.491919-.041 2.261002-.015 2.535187.037.71565.1358 1.302013.4455 1.823007.9629.498039.4945.803273 1.0538.951914 1.7442.0475.2206.05334.3322.06553 1.2525l.01338 1.0104.849886 2.2021c.467438 1.2111.849887 2.2193001.849887 2.2403001 0 .1704-.251648.5361-.541134.7864-1.339365 1.1578-3.893303 1.8789-6.103433 1.7233zm-1.771806-1.4078c.0323-.016.08406-.067.11504-.1125.172179-.2533-.118512-.594-.392312-.4598-.233035.1143-.261319.426-.05032.5546.08912.054.23922.062.327597.018zm5.209808-.062c.08085-.081.0923-.106.0923-.2032 0-.1852-.08476-.2956-.255826-.3332-.161493-.035-.343584.089-.374953.2561-.02056.1096.04915.2715.141085.3275.04551.028.117895.045.189385.045.102778 0 .12604-.01.208014-.092zm-4.067988-.864v-.6474001l-.213958.2130001-.213957.213v.4343.4344h.213957.213958zm1.069787-.2086v-.8558001h-.320936-.320936v.8558001.8559h.320936.320936zm1.069787 0v-.8558001h-.320936-.320936v.8558001.8559h.320936.320936zm.85583.4215v-.4343l-.213957-.213-.213958-.2130001v.6474001.6473h.213958.213957zm-6.769213-.233c.03074-.014.06785-.045.08248-.068.02251-.036.35654-.8881001 1.447763-3.6930001.29691-.7632.445693-1.0367.712568-1.31.301114-.3083.615352-.44 1.099181-.4605.477035-.02.70809.049 1.321803.3978.1183.067.171197.082.326983.091.230331.013.357497-.02.550115-.1454.204611-.133.461735-.2484.674685-.3029.221329-.057.631003-.062.874575-.011.242082.051.531056.2017.714765.3735.279964.2619.472177.5987.743671 1.303.776849 2.0154 1.463749 3.7517001 1.49789 3.7862001.02306.023.0809.049.128546.056.07456.012.09671 0 .159046-.058.04425-.044.07242-.097.07242-.1354 0-.052-.492478-1.3369001-1.485247-3.8753001-.158276-.4047-.329179-.7635-.44726-.9389-.415943-.6179-.901447-.9121-1.606111-.9733-.546409-.047-1.002394.073-1.560701.4112-.197739.1199-.330304.1204-.511922 0-.449957-.2938-.861222-.419-1.366148-.416-.912153 0-1.535714.4155-1.982206 1.3035-.117587.2339-.115804.2294-.982737 2.4543-.868451 2.2288001-.789204 2.0046001-.742998 2.1019001.05574.1175.164574.1594.278841.1073zm5.699293-1.8347001c-.000143-.407-.01583-.4885-.125316-.6514-.110876-.1649-.260749-.2494-.468503-.2643-.284419-.02-.51719.1129-.633858.3629-.05113.1096-.05549.15-.0557.5171l-.000237.3982h.641872.641872l-.000142-.3625zm-1.219031-1.4146c.05513-.03.111296-.074.124809-.1.01377-.026.02457-.2022.02457-.4016 0-.4098-.0422-.5966-.173687-.769-.191066-.2505-.427793-.3521-.862005-.3698-.430715-.018-.720266.068-1.069985.3157-.21578.1529-.315391.3014-.411588.6136-.08815.286-.05904.526.07961.6563.122438.115.170501.1195 1.213341.1135.960361-.01.976169-.01 1.074935-.059zm3.251681.039c.131564-.037.287962-.1969.31087-.3188.04177-.2223-.10476-.6797-.28244-.8815-.136745-.1554-.412369-.3293-.643348-.406-.171798-.057-.230289-.064-.52611-.065-.375199 0-.506063.027-.72433.1583-.151467.091-.293037.2775-.345953.4557-.02494.084-.03516.2344-.03516.5173 0 .3783.0027.4014.05142.4468.04734.044.125116.077.245739.1042.109207.024 1.857078.015 1.949312-.01z"/></svg>